# xmcd
#
# Track frame offsets:
#	150
#	27702
#	31147
#	57392
#	73192
#
# Disc length: 983 seconds
#
# Revision: 5
# Processed by: cddbd v1.5.2PL0 Copyright (c) Steve Scherf et al.
# Submitted via: audiograbber 1.83.01
#
DISCID=4503d505
DTITLE=Bingoboys - Chartbuster
DYEAR=1992
DGENRE=Dance
TTITLE0=Chartbuster (Club Mix)
TTITLE1=Original X-Charts TV-Theme
TTITLE2=Countdown
TTITLE3=Chartbuster (Original Radio Version)
TTITLE4=Bingo
EXTD=
EXTT0=
EXTT1=
EXTT2=
EXTT3=
EXTT4=
PLAYORDER=
